HIERARCHY
ROOT pelvis
{
  OFFSET 0 100 0
  CHANNELS 6 Xposition Yposition Zposition Zrotation Xrotation Yrotation
  JOINT pelvis_right_femur
  {
    OFFSET -10.78128 -3.44521 -0.5502486
    CHANNELS 3 Zrotation Xrotation Yrotation
    JOINT right_femur_tibia
    {
      OFFSET -0.8047443 -44.0398 -0.1307829
      CHANNELS 3 Zrotation Xrotation Yrotation
      JOINT right_tibia_foot
      {
        OFFSET 3.006224 -47.83518 -5
        CHANNELS 3 Zrotation Xrotation Yrotation
        End Site
        {
          OFFSET 0 -5 15
        }
      }
    }
  }
  JOINT pelvis_left_femur
  {
    OFFSET 10.78128 -3.44521 -0.5502486
    CHANNELS 3 Zrotation Xrotation Yrotation
    JOINT left_femur_tibia
    {
      OFFSET 0.8047443 -44.0398 -0.1307829
      CHANNELS 3 Zrotation Xrotation Yrotation
      JOINT left_tibia_foot
      {
        OFFSET -4.370144 -48.10324 -4.275266
        CHANNELS 3 Zrotation Xrotation Yrotation
        End Site
        {
          OFFSET 0 -5 15
        }
      }
    }
  }
  JOINT pelvis_spine1
  {
    OFFSET 0 6.468898 -3.129235
    CHANNELS 3 Zrotation Xrotation Yrotation
    JOINT spine1
    {
      OFFSET 0 23.15396 4.99043
      CHANNELS 3 Zrotation Xrotation Yrotation
      JOINT spine2
      {
        OFFSET 0 20.79997 -5.064912
        CHANNELS 3 Zrotation Xrotation Yrotation
        JOINT neck
        {
          OFFSET 0 14.38658 9.616178
          CHANNELS 3 Zrotation Xrotation Yrotation
          End Site
          {
            OFFSET 0 20 0
          }
        }
      }
      JOINT right_manubrium
      {
        OFFSET -5.722621 16.35077 3.967754
        CHANNELS 3 Zrotation Xrotation Yrotation
        JOINT right_clavicle
        {
          OFFSET -13.16364 1.694482 -4.693211
          CHANNELS 3 Zrotation Xrotation Yrotation
          JOINT right_humerus
          {
            OFFSET -28.5034 -0.3100689 -2.792744
            CHANNELS 3 Zrotation Xrotation Yrotation
            JOINT right_radius
            {
              OFFSET -25.15693 0.02248979 -1.271978
              CHANNELS 3 Zrotation Xrotation Yrotation
              End Site
              {
                OFFSET -15 0 0
              }
            }
          }
        }
      }
      JOINT left_manubrium
      {
        OFFSET 5.722621 16.35077 3.967754
        CHANNELS 3 Zrotation Xrotation Yrotation
        JOINT left_clavicle
        {
          OFFSET 13.16364 1.694482 -4.693211
          CHANNELS 3 Zrotation Xrotation Yrotation
          JOINT left_humerus
          {
            OFFSET 29.39168 -1.063119 -2.237045
            CHANNELS 3 Zrotation Xrotation Yrotation
            JOINT left_radius
            {
              OFFSET 24.59957 -0.9528479 0.9047498
              CHANNELS 3 Zrotation Xrotation Yrotation
              End Site
              {
                OFFSET 15 -0 -0
              }
            }
          }
        }
      }
    }
  }
}
MOTION
Frames: 10
Frame Time: 0.0416666666667
38.4877 105.0036 242.8739 2.061519 -7.297647 6.930444 1.187295 11.11618 7.233798 4.125567e-06 36.84715 -5.327395e-06 2.071383 -10.71397 -5.249743 -2.001889 -14.80555 -7.864002 2.786412e-06 19.0681 -1.016985e-05 -7.691848 -9.830628 18.67035 -1.520048 -0.02264736 7.25887 -1.349133 9.821992 -4.060841 2.329668 21.67707 4.723867 2.220602 -16.18607 6.487607 2.519278 -21.05515 10.6534 83.15835 25.04383 -8.367804 -1.559684e-06 -9.691485e-07 24.55098 -21.67167 12.04875 12.70747 4.217153 -15.45821 -3.016182 -94.42533 26.75376 25.62211 -1.365626e-06 -5.368473e-06 -10.64317 -5.28406 6.000494 20.53081
40.08465 105.5066 248.7669 2.3693 -7.797543 7.309552 0.7482425 9.023021 7.423099 6.225594e-06 43.39478 -6.997668e-06 2.128842 -8.422424 -5.880141 -3.135192 -11.53773 -9.010083 -4.937452e-07 20.3712 -1.035375e-05 -7.344806 -10.44862 18.7651 -1.815129 -0.04959506 6.79203 -1.420263 9.890109 -4.159821 2.38825 21.90999 4.916574 2.319022 -16.06838 6.714189 2.820575 -20.21556 10.57481 83.68147 25.05478 -9.295847 -1.262783e-06 -1.518646e-06 23.12919 -21.1863 11.69503 12.06916 4.061349 -15.39062 -3.225447 -93.64208 27.28079 24.4469 -2.296036e-06 -6.111829e-06 -10.41667 -5.164335 6.167578 20.47778
41.62707 106.3072 254.3224 2.798877 -8.351982 7.881616 0.2915259 5.731885 7.622928 9.89575e-06 49.57633 -9.686808e-06 2.351489 -6.581174 -6.732988 -4.327753 -7.290667 -10.3117 -4.95833e-06 20.75657 -1.022391e-05 -6.69419 -11.66665 19.01993 -2.193954 -0.08269155 6.249968 -1.440824 9.971667 -4.408732 2.457425 22.18514 5.10333 2.36647 -15.85353 6.99436 3.110493 -19.3298 10.48691 84.46929 25.00589 -10.67497 -1.211041e-06 -2.358792e-06 21.6028 -20.55963 11.36506 11.2256 4.029492 -15.5406 -3.50271 -92.55366 27.867 22.65291 -3.188223e-06 -6.942632e-06 -10.83487 -4.955892 6.475285 20.26634
43.06936 107.2548 259.4831 3.14898 -8.716541 8.554569 0.1106491 1.499611 7.747452 1.422163e-05 53.32802 -1.278e-05 2.428804 -5.700185 -7.615784 -5.252971 -2.500929 -11.55574 -8.763162e-06 20.6353 -9.913484e-06 -5.947553 -13.12268 19.2452 -2.491457 -0.1136877 5.640789 -1.319246 9.945091 -4.784989 2.546202 22.39742 5.205515 2.322677 -15.66085 7.288828 3.290631 -18.4325 10.34221 85.2242 24.91786 -12.30793 -1.506407e-06 -3.012707e-06 20.014 -19.55806 11.08614 10.13696 4.126285 -15.85635 -3.73484 -91.14305 28.43814 20.41299 -3.738309e-06 -7.548884e-06 -11.81086 -4.591208 7.004649 19.75455
44.43566 108.1593 264.4782 3.308364 -8.753244 9.268568 0.1705308 -3.030482 7.568131 1.699277e-05 53.9759 -1.456037e-05 2.455587 -5.277147 -8.388801 -5.720297 2.153426 -12.32098 -1.040424e-05 19.36284 -9.635764e-06 -5.57963 -14.73036 19.10311 -2.627832 -0.1121083 5.008328 -1.107128 9.779119 -5.231142 2.641717 22.53066 5.26371 2.240999 -15.59077 7.562128 3.2602 -17.67586 10.14227 86.24607 24.7065 -13.9641 -2.136283e-06 -3.300774e-06 18.61116 -18.77189 10.96031 9.28734 4.413225 -16.34412 -3.912492 -89.91592 28.81843 18.11863 -3.60634e-06 -7.811619e-06 -13.29267 -4.195987 7.476557 19.19581
45.68701 108.764 269.2216 3.427938 -8.5502 9.971833 0.3250152 -7.630822 7.157385 1.817868e-05 51.32482 -1.433497e-05 2.212712 -5.841115 -8.847562 -5.949031 6.127958 -12.87662 -1.212741e-05 17.27152 -8.443247e-06 -4.942241 -16.46633 19.08982 -2.753953 -0.08054044 4.454281 -0.8103415 9.513971 -5.679999 2.675974 22.61743 5.306139 2.146513 -15.51181 7.75879 3.089582 -16.99782 9.936848 86.73014 24.56344 -15.46188 -2.674872e-06 -3.380621e-06 17.18307 -17.8956 10.73419 8.41006 4.861139 -17.02804 -4.033673 -88.19559 29.01352 15.43415 -3.163828e-06 -7.31364e-06 -15.35501 -3.526627 8.167225 18.17646
46.84082 108.9487 273.9588 3.350033 -8.081567 10.59814 0.6213048 -12.08908 6.464446 1.731857e-05 45.7874 -1.228949e-05 1.852149 -6.66732 -9.143106 -5.848663 9.585818 -12.94477 -1.16202e-05 15.02034 -7.12152e-06 -4.862685 -18.12085 18.67808 -2.729587 0.03706464 3.906562 -0.4586561 9.076803 -6.10986 2.712824 22.68939 5.33339 2.066022 -15.50745 7.909242 2.752566 -16.31496 9.679001 87.32034 24.38455 -16.86102 -3.242983e-06 -2.951585e-06 15.74346 -17.26231 10.57086 7.768349 5.464089 -17.80712 -4.066385 -86.63365 29.07094 12.64532 -2.140973e-06 -6.328458e-06 -17.77097 -2.843441 8.715828 17.15083
47.9154 108.6735 278.8818 3.136123 -7.472518 11.13608 0.9727728 -16.12932 5.603472 1.555383e-05 38.62426 -9.600161e-06 1.40483 -7.480115 -9.305666 -5.571092 12.43888 -12.63789 -9.468641e-06 13.31458 -5.657909e-06 -5.297578 -19.54342 17.95135 -2.598469 0.2286685 3.397217 -0.09670022 8.545645 -6.485321 2.746672 22.79095 5.372848 2.031966 -15.56423 8.0156 2.344307 -15.60012 9.413906 88.02769 24.22943 -18.15435 -3.666338e-06 -2.136803e-06 14.25177 -16.87293 10.44279 7.334121 6.137946 -18.62162 -4.03297 -85.33674 29.04862 9.906822 -7.858136e-07 -5.018188e-06 -20.31391 -2.189952 9.101117 16.20384
48.86438 107.9256 283.8546 2.973127 -6.913935 11.58678 1.253129 -19.82481 4.766743 1.439774e-05 31.27573 -7.199584e-06 0.7827941 -8.507449 -9.33809 -5.36421 14.80469 -12.39008 -8.114287e-06 12.33956 -3.695107e-06 -5.510369 -20.8019 17.45827 -2.520013 0.4378065 2.962406 0.2566286 8.035784 -6.795478 2.74639 22.95094 5.434954 2.032904 -15.5836 8.086708 1.982066 -14.83675 9.193548 88.4059 24.21303 -19.34781 -3.755542e-06 -1.306384e-06 12.60426 -16.36891 10.16428 6.795897 6.785312 -19.44412 -3.979608 -83.86232 28.97787 7.07838 4.309829e-07 -3.436856e-06 -22.83876 -1.402319 9.600935 15.06471
49.69512 106.8565 288.9083 2.735898 -6.383116 11.92874 1.578711 -22.74492 4.046828 1.333591e-05 24.84175 -5.268929e-06 0.006370457 -9.208907 -9.278235 -5.16058 16.68393 -12.16359 -6.185553e-06 12.63271 -1.927459e-06 -5.891445 -21.54675 16.90581 -2.3847 0.6332558 2.568992 0.5833085 7.551323 -7.008394 2.751291 23.11638 5.49576 2.067267 -15.70079 8.145889 1.691231 -14.07368 9.001458 88.69621 24.29692 -20.33562 -3.622512e-06 -2.997052e-07 10.96739 -15.80418 9.851953 6.282431 7.292619 -20.08635 -3.879561 -82.70325 28.9398 4.761428 1.512769e-06 -1.928624e-06 -24.78551 -0.6656984 10.06756 14.0363
